<svg width="158" height="198" viewBox="0 0 158 198" fill="none" xmlns="http://www.w3.org/2000/svg">
<mask id="mask0_194_116" style="mask-type:luminance" maskUnits="userSpaceOnUse" x="74" y="140" width="31" height="30">
<path d="M74.6719 140.271H104.005V169.604H74.6719V140.271Z" fill="white"/>
</mask>
<g mask="url(#mask0_194_116)">
<mask id="mask1_194_116" style="mask-type:luminance" maskUnits="userSpaceOnUse" x="0" y="-2" width="159" height="198">
<path d="M0.333496 21.8281L126.224 -1.33331L158.245 172.745L32.3595 195.906L0.333496 21.8281Z" fill="white"/>
</mask>
<g mask="url(#mask1_194_116)">
<mask id="mask2_194_116" style="mask-type:luminance" maskUnits="userSpaceOnUse" x="0" y="-2" width="159" height="198">
<path d="M0.333496 21.8281L126.224 -1.33331L158.245 172.745L32.3595 195.906L0.333496 21.8281Z" fill="white"/>
</mask>
<g mask="url(#mask2_194_116)">
<path d="M77.9429 162.927C78.5939 166.474 82.0106 168.828 85.5575 168.172L98.4168 165.807C101.964 165.156 104.318 161.74 103.667 158.193L100.594 141.469L74.8647 146.203L77.9429 162.927Z" fill="#ECECED"/>
</g>
</g>
</g>
<mask id="mask3_194_116" style="mask-type:luminance" maskUnits="userSpaceOnUse" x="10" y="12" width="129" height="179">
<path d="M10.6719 12.2708H138.672V190.937H10.6719V12.2708Z" fill="white"/>
</mask>
<g mask="url(#mask3_194_116)">
<mask id="mask4_194_116" style="mask-type:luminance" maskUnits="userSpaceOnUse" x="0" y="2" width="159" height="198">
<path d="M0.333496 25.8281L126.224 2.66663L158.245 176.745L32.3595 199.906L0.333496 25.8281Z" fill="white"/>
</mask>
<g mask="url(#mask4_194_116)">
<mask id="mask5_194_116" style="mask-type:luminance" maskUnits="userSpaceOnUse" x="0" y="2" width="159" height="198">
<path d="M0.333496 25.8281L126.224 2.66663L158.245 176.745L32.3595 199.906L0.333496 25.8281Z" fill="white"/>
</mask>
<g mask="url(#mask5_194_116)">
<path d="M128.953 99.9531L112.625 138.599L116.531 159.828C118.484 170.463 111.422 180.713 100.786 182.672L87.9219 185.036C77.2813 186.995 67.0365 179.927 65.0782 169.292L61.1719 148.068L32.1615 117.76C24.2188 109.463 18.9167 99.0833 16.8334 87.7395C10.9584 55.8229 32.1511 25.0833 64.0625 19.2083C95.9844 13.3385 126.724 34.526 132.594 66.4426C134.682 77.7864 133.422 89.3697 128.953 99.9531ZM63.1563 14.2708C28.5157 20.6406 5.52088 54.0104 11.8907 88.6458C14.1563 100.953 19.9115 112.224 28.5313 121.234L56.5052 150.453L60.1407 170.198C62.599 183.562 75.4688 192.432 88.8334 189.974L101.693 187.609C115.057 185.151 123.927 172.281 121.469 158.917L117.839 139.172L133.573 101.911C138.432 90.4218 139.802 77.8437 137.536 65.5364C131.161 30.8958 97.7969 7.89577 63.1563 14.2708Z" fill="#ECECED"/>
</g>
</g>
</g>
<mask id="mask6_194_116" style="mask-type:luminance" maskUnits="userSpaceOnUse" x="27" y="28" width="95" height="109">
<path d="M27.6719 28.2708H121.005V136.271H27.6719V28.2708Z" fill="white"/>
</mask>
<g mask="url(#mask6_194_116)">
</g>
<mask id="mask7_194_116" style="mask-type:luminance" maskUnits="userSpaceOnUse" x="0" y="0" width="158" height="198">
<path d="M0 23.1615L125.891 0L157.911 174.078L32.026 197.24L0 23.1615Z" fill="white"/>
</mask>
<g mask="url(#mask7_194_116)">
<mask id="mask8_194_116" style="mask-type:luminance" maskUnits="userSpaceOnUse" x="0" y="0" width="158" height="198">
<path d="M0 23.1615L125.891 0L157.911 174.078L32.026 197.24L0 23.1615Z" fill="white"/>
</mask>
<g mask="url(#mask8_194_116)">
<path d="M88.4269 78.4896C84.88 79.1406 82.5259 82.5573 83.1769 86.1042L87.9113 111.828C88.5623 115.38 86.2134 118.792 82.6613 119.443C79.1092 120.099 75.7029 117.75 75.0467 114.198L70.3175 88.474C69.6613 84.9219 66.2446 82.5677 62.7029 83.224C59.1457 83.875 55.7394 81.5313 55.0832 77.974C54.4321 74.4219 56.7811 71.0156 60.3332 70.3594C65.2707 69.4531 70.1248 70.4896 74.104 72.9219C76.9582 69.2344 81.1248 66.5365 86.0623 65.6302C89.6144 64.974 93.0207 67.3229 93.6717 70.875C94.3279 74.4323 91.979 77.8386 88.4269 78.4896ZM66.0988 29.4063C41.2707 33.974 24.7915 57.8802 29.3592 82.7083C30.9842 91.5313 35.104 99.6042 41.2759 106.052L69.2029 135.219L100.854 129.396L116.568 92.1979C120.047 83.9792 121.021 74.9688 119.401 66.1406C114.833 41.3177 90.9217 24.8385 66.0988 29.4063Z" fill="#ECECED"/>
</g>
</g>
</svg>
